<?xml version="1.0" encoding="utf-8"?>
<!-- Generator: Adobe Illustrator 24.1.1, SVG Export Plug-In . SVG Version: 6.00 Build 0)  -->
<svg version="1.1" id="Capa_1" xmlns="http://www.w3.org/2000/svg" xmlns:xlink="http://www.w3.org/1999/xlink" x="0px" y="0px"
	 viewBox="0 0 1224 792" style="enable-background:new 0 0 1224 792;" xml:space="preserve">
<g>
	<g>
		<path d="M168.8,363.2c-1.2,1.7-0.8,3.8,0.5,5.4c4.7,5.7,12.4,7.5,19.4,7.6c7.1,0,16.5-0.7,18.7-9c0.4-1.5-0.1-3-1-4
			C195.4,370.8,181.9,369.8,168.8,363.2z"/>
	</g>
	<g>
		<path d="M255.6,292.4L226,313.2l42.1-10.5l33.5,3.7l-28.8-15.1C267.3,288.4,260.6,288.8,255.6,292.4z"/>
	</g>
	<g>
		<path d="M350.3,264.9c0-73.3-59.6-132.9-132.9-132.9h-52.3c-73.3,0-132.9,59.6-132.9,132.9v36.4H32c0,1.3-0.1,2.6-0.1,4
			c0,2,0,3.9,0.1,5.9c0.3,10.3,1.5,20.4,3.4,30.2c2.5,12.7,6.3,24.9,11.2,36.5c0,0,0,0,0,0c0.4,1.5,9,13.5,18.2,26.9c0,0,0,0,0,0
			c4.1,4.1,8.9,8.9,14.9,16c2.6,3.1,8.9,10.8,16.2,21.4c4,5.8,12.4,18.4,21.4,36.5c9,18,8.9,22,21.9,54.8
			c4.8,12.1,8.4,20.6,10.9,26.6c12.3,17.9,38.7,26.2,58.7,18.1c8.5-3.5,15.3-9.6,21.3-16.7c2.6-6.2,6.3-15,11.5-28
			c13-32.8,12.9-36.8,21.9-54.8c9-18.1,17.4-30.8,21.4-36.5c7.3-10.6,13.6-18.3,16.2-21.4c8.1-9.6,14-15.2,19.1-20.2
			c8-11.6,14.9-21.4,15.3-22.7c0,0,0,0,0,0c4.9-11.5,8.7-23.7,11.2-36.5c1.9-9.8,3.1-19.9,3.4-30.2c-0.1-2.2-0.2-4.4-0.3-6.7
			L350.3,264.9z M49.3,326.7c-0.8-6.2-1.2-12.6-1.3-19c0.1,0,0.2,0,0.3,0v-42.8c0-64.5,52.4-116.9,116.9-116.9h52.3
			c51.9,0,96.1,34.1,111.2,81l-12.6,7.9c0-0.1-47.1,28.7-71.9,40.3c-4.2,2-8.4,3.9-12.6,5.7c0,0,0,0,0,0
			c-13.2,5.8-26.7,11-40.4,15.7c-1.2,0.4-2.5,0.8-3.8,1.3c-0.5-2.5-1.2-5-2.1-7.5c-10.7-30.3-43.9-46.2-74.2-35.5
			c-27.5,9.7-50.6,40.5-46.8,68.8c-4.8,0.4-9.7,0.8-14.5,1.1C49.6,326.7,49.4,326.7,49.3,326.7z M191.1,449.1
			c-20.9,0-37.8-10.6-37.8-23.7c0-13.1,16.9-23.7,37.8-23.7s37.8,10.6,37.8,23.7C228.9,438.5,212,449.1,191.1,449.1z M333.8,300.8
			c0,1.5,0.1,2.9,0.1,4.4c0,7.3-0.5,14.5-1.3,21.5c-0.5,3.8-1.1,7.5-1.8,11.1c-0.2,1.2-0.4,2.4-0.7,3.5c-1.3,6.1-3,12.1-4.9,17.9
			c-0.1,0.1-0.2,0.1-0.3,0.2c-5.8,17-14.3,32.6-24.9,46.2c-3.9,2.4-8.2,4.3-12.5,5.7c-9.5,3.1-20.2,4.1-29.6,0.2
			c-1.9-0.8-3.7-1.8-5.4-3c-0.4-0.2-0.7-0.5-1.1-0.8c-1.3-1.6-2.8-3.1-4.5-4.6c-11.6-10.2-31.8-17-54.8-17c-22.4,0-42.2,6.4-54,16.3
			c-1.8,1.5-3.4,3-4.7,4.7c-1.2,1.4-2.6,2.5-4.2,3.4c0,0,0,0,0,0c-8.6,4.5-19,4.3-28.2,1.9c-0.1,0-0.2,0-0.2-0.1
			c-12.7-3.3-23.5-11.9-30.2-23.2c-2.5-4.3-4.9-8.8-7.1-13.4c-0.1,0-5.9-13.8-8.1-20.9c-0.1-0.3-0.2-0.6-0.3-0.9
			c-1.2-4.1-2.3-8.3-3.2-12.6c-0.3-1.2-0.5-2.3-0.7-3.5c0.2,0,0.3,0,0.5,0c5.2-0.3,10.5-0.8,15.7-1.2c12,28.7,52.9,40.5,82.5,30
			c24.1-8.5,39-31.2,38.9-55.3c0.8-0.3,1.7-0.5,2.5-0.8c5.8-1.9,11.6-4,17.3-6.2c2.5-0.9,5-1.9,7.5-2.9c0.3-0.1,0.6-0.3,1-0.4
			c-0.7,0.6,36.4-14.4,32.2-13.9c6.5-3,12.9-6.2,19.3-9.5c12.4-6.4,24.5-13.3,36.5-20.7l0,0l26.8-16.8c1.7,7.9,2.6,16.1,2.6,24.6
			C334.4,264.9,333.8,299.5,333.8,300.8z"/>
	</g>
</g>
<g>
	<g>
		<path d="M477.2,465.9c-2.2,0.3-4.5,0.6-7,0.8s-5,0.3-7.6,0.3c-11.5,0-22.3-2.4-32.2-7.1c-10.6-5.5-18.7-12.9-24.2-22.4
			c-6.1-10.8-9.1-22.7-9.1-35.7c0-15.4,3.8-29.3,11.3-41.7c8.1-13.3,19.1-22.2,33-26.8c-8.1,6.7-14.7,14.9-19.6,24.6
			c-5,9.8-7.4,19.7-7.4,29.9c0,13.3,4.6,25.9,13.7,37.7c2.1-3.8,3.1-9.5,3.1-16.9v-52.8l42.4-36.4c6.1,4.1,12.9,7.1,20.6,8.9
			c9.8,2.4,17.8,3.3,24.2,2.7l2.7-0.2l-30.4,32.8h23.5l-10.9,22.8h-34.8l-0.2,60.5l8.2,0.9c13.2,0,28.2-6.7,45-20l1.1,0.2
			C511.6,450.2,496.4,462.8,477.2,465.9z M463,338.4l-9.5,7.8v41.7c0,8.6-2.1,16.1-6.2,22.6c-3.1,5.2-8.4,10.9-16,17.3
			c7.7,8.9,18.3,15.1,31.7,18.6V338.4z M468.3,342.6V381L494,353L468.3,342.6z"/>
		<path d="M558.3,465.5c-7-6.1-17.4-11.7-31.5-16.9c3.8-4.3,5.8-9.6,5.8-16v-88.5c0-4.3-2.4-9-7.3-14.2c5.5,1.3,10.3,3.7,14.6,7.1
			l2.4-0.2c6.8-6.4,14.4-10.1,22.8-11.3c-7.2,5.3-10.9,12.1-10.9,20.2v93.4l16.2,10.2l5.3-4l2.7,2.9L558.3,465.5z"/>
		<path d="M783.2,343.1c-7.4,5.3-16,7.5-25.9,6.7l-2.7-0.2V447c15.5-4.9,28.2-14.7,37.9-29.5l1.1,0.7c-7.2,25.9-21.1,41.4-41.5,46.6
			c-5.8,1.5-11.8,2.2-18.2,2.2c-25,0-43.8-8.9-56.3-26.6c-7.2-10.1-10.9-21.4-10.9-33.9c0-5,0.8-10.6,2.4-16.9
			c2.7-10.2,7.4-19.4,14.2-27.5c2.5-3.3,5.7-6.6,9.5-10.1c3.8-3.5,8.3-7.1,13.3-11l-13.5-0.7c-6.8-0.3-13,1.1-18.6,4.2
			c-4.9,2.8-10.2,8.2-16,16.2h-0.9c4.4-27.2,22.2-40.8,53.4-40.8c10.3,0,19.4,1,27.1,2.9c4.1,1.2,9.7,2.7,16.6,4.7
			c6.7,1.9,12.4,2.9,17.3,2.9c9.6,0,16.8-3.9,21.5-11.8l1.3,0.2C794.5,329.5,790.7,337.6,783.2,343.1z M713.6,342.6l-3.3-0.9
			c-14.8,15.7-22.2,32.8-22.2,51.4c0,15.7,6.1,29.3,18.2,41c4.9-4.6,7.3-10.6,7.3-18.2V342.6z M749.7,349.3l-14.4-2.9v45.2
			c0,10.2-2.1,18.8-6.2,25.7c-3,5.2-8.9,11.9-18,20.2c9.9,7.4,21.8,11.1,35.7,11.1l2.9-0.7V349.3z"/>
		<path d="M873,466.1c-9.3-6.4-14-14.2-14-23.5l-31.7,22.6c-9.3-5.9-14-14.5-14-25.7V381l-4-3.8l-5.1,3.1l-2.2-2.4l21.3-16.4
			l16.9,13.1l-6.7,5.3v59c0,4.3,2.7,7.8,8,10.6l18-12.9V381l-5.3-6.7l15.7-13.1l16.4,13.1l-6.4,5.5v63.2c0,2.4,2.2,4.7,6.7,7.1
			l4-2.7l2.2,2.2L873,466.1z"/>
		<path d="M927.1,418.9v23.1l18.6,8.2l14.6-9.3l2.4,2.7c-1.9,1.2-3.9,2.4-5.9,3.8c-2,1.3-4.1,2.8-6.3,4.4l-19.3,13.5
			c-9.9-5.5-20.1-9.2-30.6-11.1c4.1-4.3,6.2-9.7,6.2-16.2v-59.2c5.2-2.4,10.2-5,15.2-8c5-3,9.9-6.1,14.7-9.5l28.6,28.6
			C949.2,401.2,936.4,410.9,927.1,418.9z M926.9,375.6v38.1l21.1-16.6L926.9,375.6z"/>
		<path d="M1027.3,389.8l-13.3-13.1l-8.6,6.7v57.4l12,9.3l6.4-4.7l2.7,2.7l-20.2,17.3c-8.3-7.1-17.7-12.7-28.4-16.9
			c4-3.3,6-8.6,6-16v-44.6c0-3.8-1.8-7.2-5.3-10.2l-3.8,2.4l-2.4-2.4l18.8-16.6c4.6,2.4,7.8,4.6,9.5,6.7c2.4,2.5,3.8,6.1,4.4,10.6
			l22.4-17.1l14.4,15.7L1027.3,389.8z"/>
		<path d="M1073.2,375.6v64.5l11.8,9.8l6.2-4.9l2.4,3.1l-20,17.3c-10.5-8.4-19.8-14-27.9-16.9c4-4.1,6-9.5,6-16v-57.2h-7.8l0.2-3.1
			l28.8-36.1l0.2,28.2h22.6v11.3H1073.2z"/>
		<path d="M1143.1,466.1c-11.7-8.6-25-14.4-39.9-17.5c4-3.3,6-8.9,6-17.1V379c11.8-3.3,22.3-9.2,31.5-17.7
			c13.9,9,25.6,14.2,35.3,15.5V449C1162.9,452.9,1151.9,458.6,1143.1,466.1z M1155,387.6l-25.5-9.8v61.2c2.5,1,5.1,2.1,7.6,3.1
			c2.6,1,5.3,2.1,8.1,3.1c3.8,1.5,7.1,2.6,9.8,3.3V387.6z"/>
	</g>
	<g>
		<path d="M481.2,231.4c0,0.3-2.3,2.6-6.8,7.1c-2.5,2.5-4.1,4.4-5.1,5.8c-1.2,1.7-2.3,3.5-3.3,5.3c-1,1.8-2,3.7-3,5.7
			c-0.7,1.5-1.6,2.3-2.7,2.3c-0.5,0-1.1-0.2-1.7-0.7c-0.6-0.5-0.9-1-0.9-1.4c0-0.1,0.8-1.7,2.3-4.9c1.6-3.1,2.4-4.8,2.4-5.1
			l-7.1-0.4c-2.4-0.1-4.2-0.2-5.5-0.3c-1.3-0.1-2.1-0.2-2.5-0.3c-0.4-0.1-0.9-0.3-1.7-0.5c-0.7-0.2-1.7-0.5-2.9-0.8
			c-2.4-0.8-3.8-1.2-4.1-1.2c-2,0-4.9,2.1-8.6,6.2c-4.3,4.9-6.4,9.6-6.4,14.2v5.8c0,3,1,6.2,3,9.7c2.4,4.1,5.6,7.4,9.7,9.8
			c5,3,10.7,4.5,17.1,4.5c3.3,0,6.6-1.1,9.8-3.2c3.1-2.1,5-3.2,5.7-3.2c0.9,0,1.5,0.3,1.8,0.8c0.3,0.5,0.4,1.1,0.4,1.7
			c0,2.4-2.4,5.5-7.2,9.4c-5.4,4.3-10.6,6.4-15.7,6.4h-6.8c-6,0-12.3-2.9-18.8-8.7c-6.8-6-10.2-12.1-10.2-18.2v-8.3l0.5-3.8
			c0.8-3.3,2.4-6.7,4.8-10.2c3.4-4.9,8.1-9.7,14-14.3c-1.2-0.3-2.3-0.6-3.3-0.8c-1-0.3-2-0.5-2.9-0.7c-2.9-0.7-5.1-1-6.7-1
			c-4.1,0-7.1,2-9,6.1c-1.8,4-3,6.1-3.6,6.1c-0.9,0-1.5-0.3-1.8-0.8c-0.3-0.5-0.4-1.3-0.4-2.4c0-4.5,2.4-8.9,7.2-13.2
			c4.8-4.3,9.7-6.5,14.7-6.5h9.7l29.1,6.1l9.1-2.5l4.6-1.5c0.6,0,1.2,0.2,1.8,0.7C480.8,230.3,481.2,230.8,481.2,231.4z"/>
		<path d="M499.9,243.3c-0.2-0.1-0.8-0.4-1.7-0.9c-0.9-0.6-2.3-1.4-4-2.4c-2.7-1.6-5.4-2.5-8-2.5c-1.2,0-2.4,0.4-3.5,1.1
			c-1.5,1-2.3,2.5-2.3,4.4c0,0.8,0.2,1.7,0.5,2.8c0.4,1,0.5,1.9,0.5,2.6c0,1.2-0.1,2-0.4,2.2c-0.3,0.2-0.9,0.3-1.7,0.3
			c-1,0-1.8-0.5-2.4-1.4c-0.6-1-0.8-1.8-0.8-2.2c0-4.2,2.3-8.6,6.8-13.1c3.9-3.8,6.4-5.7,7.6-5.7h4.4c1.1,0,3.7,0.9,7.8,2.8
			c0.7,0.3,1.6,0.7,2.5,1.2c1,0.5,2.1,1.1,3.5,1.7l1.1-0.8c0.8-0.6,1.3-0.9,1.5-0.9c0.3,0,0.6,0.1,1,0.3c0.4,0.2,0.7,0.7,1.2,1.4
			L499.9,243.3z M549.1,293.7c-0.6,1.9-2,4.1-4.4,6.6c-2.1,2.4-3.6,3.5-4.3,3.5c-1-0.4-1.9-0.8-2.6-1.2c-0.7-0.4-1.4-0.8-1.9-1.2
			c-3-2.4-4.5-5.6-4.5-9.5v-8v-1.8c-0.4-0.1-0.6-0.2-0.7-0.4c-0.3-0.4-0.4-0.9-0.4-1.5c-0.1-0.7-0.1-1.5-0.2-2.4
			c-0.1-0.9-0.1-1.5-0.1-1.8c0-0.5,0.1-0.9,0.3-1.2h-1.1c-0.7,0.2-1.4,0.5-2.1,1.1c-0.7,0.6-1.4,1.2-2.1,2c-0.7,0.8-1.4,1.6-2.2,2.5
			c-0.7,0.9-1.5,1.8-2.3,2.6c-2.9-1.5-5.1-2.7-6.8-3.4c-5.2-2.3-9-3.5-11.4-3.5c-1.4,0-2.7,0.7-3.8,2.1c-1.1,1.4-1.8,2.1-2.1,2.1
			c-0.4,0-0.8-0.2-1.2-0.7c-0.4-0.4-0.6-0.9-0.6-1.5c0-1,1.8-3.2,5.3-6.8c3.9-3.9,7-5.9,9.2-5.9l19.5,6.1l0.4-13.7
			c-0.4-2.1-1-4.3-1.8-6.5c-0.8-2.2-1.8-4.4-3-6.7c-2-3.8-3.9-5.7-5.8-5.7c-1,0-3,1.7-6.1,5c-1.9,2.1-3.8,4.5-5.6,7
			c-1.8,2.5-3.6,5.3-5.3,8.4c-1.2,2-2.2,3.9-3,5.5s-1.5,3-2.1,4.2c-2.4,5.4-3.6,9.8-3.6,13.1c0,2.8,0,5,0,6.6c0,1.6,0,2.8,0.1,3.4
			c0,0.1,0,0.2,0,0.3c0,0.1,0,0.3-0.1,0.5c-0.6,2.3-1.1,4-1.6,5.2c-1.5,3.5-3,5.3-4.5,5.3c-1,0-1.8-0.3-2.3-0.8
			c-0.6-0.5-0.9-1.2-0.9-2.1c0-0.7,0.8-2.3,2.4-4.8c0.8-1.3,1.2-2.4,1.2-3.5c0-0.9-1.6-3.1-4.8-6.8c-3.1-3.6-4.7-7.4-4.7-11.4
			c0-5.1,1.7-9.7,5.1-13.8c1.5-1.8,3.6-3.9,6.3-6.2c2.7-2.3,6.1-4.9,10.1-7.6l29.3-19.8h1.8v1.5c-0.3,0.3-0.5,0.5-0.7,0.8
			c-0.2,0.3-0.3,0.6-0.3,1c3.1,2.4,5.8,5.4,8.1,9.2c2.6,4.2,3.8,8.4,3.8,12.5v4c0,1.9,0.1,3.2,0.4,3.9c0.3,0.6,0.5,1.2,0.7,1.6
			c0.2,1.8,0.2,3.5,0.2,4.9c0,1.3,0,2.3,0,2.8c0,0.5-0.1,1-0.2,1.4c0.2,0.3,0.4,0.6,0.7,0.9c0.3,0.3,0.4,0.6,0.4,1v3.6
			c0,5,0.3,8.6,0.9,10.9c0.9,3.3,2.5,5,4.8,5V293.7z"/>
		<path d="M616.6,283.1c0,1.3-1.2,3.5-3.5,6.5c-2.8,3.7-6.2,6.9-10.2,9.4c-5.2,3.2-10.7,4.8-16.6,4.8c-6.3,0-12.2-2.1-17.8-6.2
			c-4.6-3.4-8.5-7.9-11.7-13.4c-2.8-4.8-4.2-8.9-4.2-12.4v-7.7c0-4,1.5-8.6,4.5-13.7c3.1-5.2,7-9.5,11.8-13.1c2.1-1.6,4.3-3,6.4-4.3
			c2.1-1.3,4.2-2.3,6.2-3.2c2-0.9,3.9-1.6,5.7-2c1.8-0.5,3.5-0.7,5-0.7c1.4,0,4.7,0.6,9.8,1.8c0.9,0.2,1.9,0.5,3.1,0.8
			c1.2,0.3,2.6,0.7,4.2,1.1c0.4,0,1.4-0.7,3.1-2.1c0.9-0.7,1.5-1.1,2-1.1c0.4,0,0.8,0.2,1.2,0.7c0.4,0.4,0.7,0.8,0.7,1.1
			c0,0.6-1.1,2.6-3.3,5.8c-1.3,2-2.5,3.9-3.5,5.5c-1,1.6-1.9,3.1-2.5,4.4c-2.3,4.4-3.4,8-3.4,10.8v4.1h-2.9
			c-0.4-1.5-0.5-2.5-0.5-3.1c0-0.4,0.1-0.7,0.4-0.8l0.2-0.2c0-2.3,0.2-4,0.5-5.3c0.2-0.6,0.4-1.1,0.6-1.7c0.2-0.6,0.4-1.1,0.7-1.7
			c0-0.7-2.4-2.3-7.2-4.8c-5.5-2.9-10-4.4-13.5-4.4c-5.6,0-10.4,2.3-14.4,6.8c-3.7,4.2-5.6,9-5.6,14.3c0,6,2.1,11.6,6.3,16.7
			c3.5,4.4,7.9,7.9,13.4,10.7c4.9,2.6,8.9,3.8,12.1,3.8h5.1c3.6,0,7.1-1.6,10.4-4.9c3.3-3.3,5.3-4.9,6-4.9c0.5,0,0.9,0.2,1.3,0.7
			C616.4,281.8,616.6,282.4,616.6,283.1z"/>
		<path d="M685.2,266.1c0,3.2-1.4,7.8-4.1,13.6c-3,6.3-6.8,11.7-11.2,16.2c-5.3,5.3-10.8,7.9-16.4,7.9c-7.8,0-15.2-3.5-22.2-10.4
			c-7.5-7.4-11.3-15.9-11.3-25.5c0-2.4,0.8-6.4,2.5-12.1c1.4-4.8,2.3-7.6,2.8-8.4c1.3-2.2,2.8-4.3,4.4-6.4c1.7-2.1,3.5-4.1,5.6-6
			c5.6-5.3,10.8-8,15.4-8h5.9c2.4,0,5.4,1.1,9.2,3.2c3.2,1.7,6,4.1,8.4,7c1.1,1.1,2.2,2.2,3.1,3.3c0.9,1.1,1.7,2.2,2.5,3.2
			c3.6,5.3,5.4,10.5,5.4,15.7V266.1z M677.2,268.3c-1.4-3.6-3-7-4.7-10.3c-1.8-3.5-3.8-6.2-5.9-8.1c-1.2-1.3-2.3-2.4-3.3-3.3
			s-1.9-1.7-2.6-2.3c-4.7-3.8-8.7-5.7-12.1-5.7h-6c-2.6,0-5.4,1.7-8.3,5.2c-2.9,3.5-4.4,6.6-4.4,9.2v9.2c0,2.9,1.5,6.8,4.5,11.7
			c0.4,0.7,1,1.6,1.8,2.8c0.8,1.2,1.9,2.6,3.1,4.2c3,4,6.4,7.1,10.3,9.2c3.1,1.8,5.8,2.8,8,2.8h3.9c3.9,0,7.7-2.6,11.4-7.8
			c1.1-1.6,2.5-4.2,4.1-7.8V268.3z"/>
		<path d="M757.9,276c0,3.3-1.1,6.9-3.3,11c-2.5,4.7-5.9,8.5-10.1,11.5c-5,3.6-10.7,5.4-17,5.4H720c-6.8,0-12.6-1.4-17.5-4.3
			c-4.9-2.9-8.9-7-11.8-12.5c-0.5-0.5-0.7-0.9-0.8-1.2c-0.6-1-0.9-1.8-0.9-2.4v-3.6c0-2.6,1-4.8,3.1-6.8c2-1.9,4.3-2.8,6.8-2.8
			c1,0,2,0.1,2.9,0.4c0.9,0.3,1.8,0.7,2.7,1.2c1.7,1.1,2.6,2.3,2.6,3.8v1.1c-2.7,0-4.6,0.4-5.6,1.3c-1,0.9-1.5,2.5-1.5,4.8
			c0,4,1.9,7.6,5.8,10.9c4.3,3.7,9.8,5.5,16.4,5.5c5.9,0,11-1.9,15.2-5.8c4.2-3.9,6.3-8.3,6.3-13.1c0-4.5-1.6-8.4-4.8-11.7
			c-3.2-3.4-6.7-5.1-10.6-5.1c-3.1,0-5.8,0.8-8.1,2.3c-2.3,1.5-3.4,3.6-3.4,6.3h-1.1c-6.3,0-12-2-17-6.1c-5.4-4.3-8.1-9.8-8.1-16.4
			c0-6.2,2.7-11.7,8.1-16.3c4.8-4.1,9.8-6.2,15-6.2c4.3,0,9,1,13.8,2.9c2.7,1,5.3,2.1,7.9,3.2c2.6,1.1,5.3,2.2,7.9,3.2
			c2,0,3.6-0.8,4.8-2.3c1.1-1.6,2-2.4,2.7-2.4c0.3,0,0.6,0.2,1.1,0.6c0.5,0.4,0.7,0.9,0.7,1.5c0,3.5-1.9,7.1-5.6,10.8
			c-2.8,2.8-6.1,4.2-9.8,4.2c-1.5,0-3.2-0.3-4.9-0.8c-1.7-0.5-3.6-1.3-5.5-2.5c-1.9-1.1-3.8-2.2-5.6-3.3c-1.8-1.1-3.6-2.2-5.4-3.2
			c-2-1.2-3.8-2-5.4-2.6c-1.6-0.6-3-0.8-4.1-0.8c-2.4,0-4.6,0.9-6.5,2.7c-1.8,1.8-2.8,3.6-2.8,5.5c0,3,1.9,6,5.7,9.2
			c4,3.4,8.2,5.1,12.5,5.1h10c0.9-1.3,2.4-2.5,4.6-3.6c2.7-1.4,5.3-2.1,7.9-2.1c4.2,0,8,1.5,11.5,4.4c2.5,2.1,4.7,5,6.4,8.7
			c1.4,2.9,2.1,4.9,2.1,6.2V276z"/>
	</g>
</g>
</svg>
